<?xml version="1.0" encoding="UTF-8"?>
<svg width="30px" height="30px" viewBox="0 0 30 30" version="1.1" xmlns="http://www.w3.org/2000/svg" xmlns:xlink="http://www.w3.org/1999/xlink">
    <title>66418332-E14D-420C-990E-D6A15550C8CB</title>
    <g id="Page-1" stroke="none" stroke-width="1" fill="none" fill-rule="evenodd">
        <g id="screen-1" transform="translate(-740.000000, -1003.000000)" fill="#FFFFFF" fill-rule="nonzero">
            <g id="facebook-(1)" transform="translate(740.000000, 1003.000000)">
                <path d="M15,0 C23.2842712,0 30,6.71572875 30,15 C30,23.2842712 23.2842712,30 15,30 C6.71572875,30 0,23.2842712 0,15 C0,6.71572875 6.71572875,0 15,0 Z M19.475,6.851 L17.154,6.851 C14.545,6.851 12.859,8.581 12.859,11.257 L12.859,13.289 L10.524,13.289 C10.4272877,13.2889996 10.334551,13.3274868 10.2662589,13.3959664 C10.1979669,13.4644461 10.1597343,13.5572881 10.1599986,13.654 L10.1599986,16.6 C10.1599986,16.8010316 10.3229684,16.964 10.524,16.964 L12.859,16.964 L12.859,24.394 C12.859,24.5950316 13.0219684,24.7580014 13.223,24.7580014 L16.271,24.7580014 C16.3677119,24.7582657 16.4605539,24.7200331 16.5290336,24.6517411 C16.5975132,24.583449 16.6360004,24.4907123 16.636,24.394 L16.636,16.964 L19.365,16.964 C19.4618041,16.9642656 19.5547489,16.9260648 19.6233873,16.8578015 C19.6920257,16.7895382 19.7307351,16.6968041 19.731,16.6 L19.731,13.651 C19.7304506,13.4490918 19.5669082,13.2855494 19.365,13.285 L16.635,13.285 L16.635,11.563 C16.635,10.735 16.835,10.314 17.91,10.314 L19.475,10.314 C19.6759653,10.3129026 19.8384539,10.1499675 19.839,9.949 L19.839,7.215 C19.8384506,7.01419636 19.6758036,6.8515494 19.475,6.851 Z" id="Combined-Shape"></path>
            </g>
        </g>
    </g>
</svg>