<?xml version="1.0" encoding="UTF-8"?>
<svg width="30px" height="30px" viewBox="0 0 30 30" version="1.1" xmlns="http://www.w3.org/2000/svg" xmlns:xlink="http://www.w3.org/1999/xlink">
    <title>18EE62E8-D0B1-48F0-B896-8D757F1C063C</title>
    <g id="Page-1" stroke="none" stroke-width="1" fill="none" fill-rule="evenodd">
        <g id="screen-3" transform="translate(-830.000000, -1003.000000)" fill="#3AAF4A" fill-rule="nonzero">
            <g id="Group-12" transform="translate(740.000000, 1003.000000)">
                <g id="instagram" transform="translate(90.000000, 0.000000)">
                    <path d="M15,0 C23.2842712,0 30,6.71572875 30,15 C30,23.2842712 23.2842712,30 15,30 C6.71572875,30 0,23.2842712 0,15 C0,6.71572875 6.71572875,0 15,0 Z M18.6221956,7.8 C16.2579901,7.8 13.8910349,7.80099995 11.5213301,7.80299984 C11.2956138,7.79851879 11.0699052,7.8123131 10.8464141,7.8442477 C9.08561608,8.11897436 7.79088891,9.64086742 7.80179337,11.4230613 L7.80329318,14.9921254 C7.80329318,15.7735847 7.79804384,16.555794 7.80329318,17.3372533 L7.80010608,18.1809593 C7.80104346,18.4625697 7.80854253,18.743805 7.83628907,19.0224155 C8.01401694,20.8058226 9.57682228,22.2 11.3713488,22.2 L18.6004483,22.2 C20.5884258,22.2 22.2,20.588309 22.2,18.6001875 L22.2,11.3870632 C22.1906074,9.41339169 20.5956943,7.8143512 18.6221956,7.8 Z M18.6004483,8.83037085 C19.2829321,8.826627 19.9385577,9.09612487 20.4210838,9.57882676 C20.9036098,10.0615287 21.1728967,10.7172804 21.1688784,11.3998125 L21.1711282,15.0138743 C21.172628,16.2043123 21.1736278,17.3940003 21.1741278,18.5829384 C21.1832727,19.2718578 20.9139141,19.9352909 20.42712,20.4228262 C19.9403258,20.9103616 19.2773319,21.1807008 18.5884498,21.1725535 C16.1952479,21.1755534 13.802046,21.1755534 11.4088441,21.1725535 C10.7252141,21.1788075 10.067711,20.9102376 9.58393901,20.4271356 C9.10016703,19.9440337 8.83065799,19.2868752 8.83580774,18.6031873 L8.83580774,11.4035623 C8.829661,10.7198828 9.09821145,10.062332 9.58127843,9.57852498 C10.0643454,9.09471794 10.7214562,8.82518937 11.4050946,8.83037085 Z M15.0118099,11.4000003 C13.0205293,11.3991681 11.404561,13.009844 11.4000041,14.9999736 C11.3970066,16.9679588 13.0231803,18.5999734 14.9840441,18.5999734 C16.2709313,18.6049036 17.4627101,17.9233331 18.1104491,16.8119761 C18.758188,15.7006191 18.7634802,14.3283172 18.124332,13.2120031 C17.4851838,12.0956891 16.2986971,11.4049576 15.0118099,11.4000003 Z M15.0023044,12.428993 C16.4229379,12.4291311 17.5745157,13.5801578 17.5745157,14.9999736 C17.5747149,15.6820311 17.3036494,16.3361995 16.8210139,16.8184166 C16.3383783,17.3006338 15.6837541,17.5713524 15.0013039,17.5709547 C13.5806706,17.5705401 12.4293169,16.4192895 12.4295931,14.9994738 C12.4298694,13.579658 13.581671,12.428855 15.0023044,12.428993 Z M18.9098515,10.2000541 C18.545091,10.1960664 18.2139996,10.4126524 18.0715176,10.7484567 C17.9290356,11.084261 18.003347,11.4728589 18.2596764,11.732399 C18.5160059,11.9919391 18.9036494,12.0710823 19.2412022,11.9327921 C19.578755,11.7945019 19.7994465,11.4661333 19.8,11.1013521 C19.7975782,10.6089149 19.4022215,10.2086062 18.9098515,10.2000541 Z" id="Combined-Shape"></path>
                </g>
            </g>
        </g>
    </g>
</svg>