<?xml version="1.0" encoding="UTF-8"?>
<svg width="30px" height="30px" viewBox="0 0 30 30" version="1.1" xmlns="http://www.w3.org/2000/svg" xmlns:xlink="http://www.w3.org/1999/xlink">
    <title>95F5E8C0-93B3-4751-9A1E-67889E755B54</title>
    <g id="Page-1" stroke="none" stroke-width="1" fill="none" fill-rule="evenodd">
        <g id="screen-1" transform="translate(-785.000000, -1003.000000)" fill="#FFFFFF" fill-rule="nonzero">
            <g id="Group-12" transform="translate(740.000000, 1003.000000)">
                <g id="twitter-(1)" transform="translate(45.000000, 0.000000)">
                    <path d="M15,0 C23.2842712,0 30,6.71572875 30,15 C30,23.2842712 23.2842712,30 15,30 C6.71572875,30 0,23.2842712 0,15 C0,6.71572875 6.71572875,0 15,0 Z M18.8671207,8.39642753 C18.3087725,8.43602541 17.8973142,8.66948794 17.4741714,8.92522427 L17.5768273,8.57874279 C15.9234824,9.68500867 15.2558015,11.4165911 14.5430521,13.1382741 C14.5050777,13.1055509 13.8999629,12.6632657 13.1922307,12.1849321 L12.8839886,11.9788139 L12.5713068,11.7748153 C12.2591138,11.5740546 11.95245,11.386274 11.6878814,11.2408755 C10.6296072,10.6592816 8.64325636,9.97126837 8.09492339,9.82442622 C8.08824658,10.9653402 8.75175451,11.6385043 9.63893556,12.2027741 L8.57148066,12.3677653 C8.76761193,13.4847556 9.56048305,13.9657049 10.4835519,14.243715 C10.1705765,14.3913822 9.85092426,14.5357494 9.53878342,14.6949659 C9.41526244,14.7576626 9.40858563,14.8591322 9.49204575,14.9820506 C9.74893973,15.3949173 10.1477642,15.7024404 10.6154189,15.8482543 C10.9392442,15.9488989 11.2830999,15.985197 11.6169403,16.0478936 C11.6035867,16.0577931 10.95844,16.3910753 11.0327195,16.8942984 C11.0953146,17.2968769 11.40829,17.4734174 11.7713416,17.574887 C11.8681553,17.5996357 12.2295376,17.6417085 12.3463818,17.6573826 C11.5618567,18.4122173 10.6730064,18.8915167 9.63225875,19.0639324 C8.06738155,19.3237936 6.65440176,18.9492636 5.4025,17.9857151 C5.75254883,18.4907027 6.17032469,18.9463883 6.64438655,19.3402927 C8.58900728,20.962156 10.8432651,21.6823425 13.3762796,21.5882975 C15.4410829,21.5140515 17.3398006,20.9283328 19.0473946,19.7733945 C20.6064296,18.7191009 21.735645,17.3372997 22.2530977,15.5149721 C22.2956624,15.36648 22.3749495,15.3499809 22.503478,15.3499809 C23.2070468,15.3285321 23.8530281,15.142092 24.4046995,14.6900162 C24.4682967,14.6437089 24.534322,14.6007515 24.6025,14.5613231 C24.5791312,14.5423491 22.8406569,14.4532538 22.5994572,14.2717635 C23.8096289,13.9277569 24.3337584,13.5887 24.4773098,13.0524787 L24.2127413,13.1415739 C23.669697,13.3376863 23.0871136,13.4027382 22.5134933,13.3313138 C22.3081814,13.3040903 22.2364057,13.2166449 22.1863296,13.0269051 C21.8140975,11.6005563 21.0062035,10.5050148 19.6165926,9.90857172 C19.1876076,9.72460655 18.7018697,9.6693345 18.2620349,9.55961537 C18.3947365,9.52166739 18.5658297,9.48124456 18.7327499,9.4243226 C19.0055571,9.33794465 19.273077,9.23602962 19.5339671,9.11908891 C19.76849,8.9846211 19.6716763,8.59111712 19.1291855,8.72723485 C18.9222044,8.77508229 18.7177271,8.82952938 18.4965578,8.88480143 Z" id="Combined-Shape"></path>
                </g>
            </g>
        </g>
    </g>
</svg>